<svg width="212" height="98" viewBox="0 0 212 98" fill="none" xmlns="http://www.w3.org/2000/svg">
<path d="M84.2138 86.8804C81.7437 86.8804 79.6927 86.0644 78.0606 84.4323C76.4286 82.8003 75.6126 80.7492 75.6126 78.2791V61.4075C75.6126 58.9374 76.4286 56.8863 78.0606 55.2543C79.6927 53.6222 81.7437 52.8062 84.2138 52.8062H93.8075C96.2776 52.8062 98.3287 53.6222 99.9607 55.2543C101.593 56.8863 102.409 58.9374 102.409 61.4075V78.2791C102.409 80.7492 101.593 82.8003 99.9607 84.4323C98.3287 86.0644 96.2776 86.8804 93.8075 86.8804H84.2138ZM93.4767 82.5798C94.9764 82.5798 96.1233 82.1828 96.9172 81.3888C97.7112 80.5949 98.1082 79.448 98.1082 77.9483V61.7383C98.1082 60.2386 97.7112 59.0917 96.9172 58.2978C96.1233 57.5038 94.9764 57.1068 93.4767 57.1068H84.5447C83.045 57.1068 81.8981 57.5038 81.1042 58.2978C80.3102 59.0917 79.9132 60.2386 79.9132 61.7383V77.9483C79.9132 79.448 80.3102 80.5949 81.1042 81.3888C81.8981 82.1828 83.045 82.5798 84.5447 82.5798H93.4767Z" fill="white"/>
<rect x="80.9999" y="58" width="16" height="24" rx="4.19048" fill="url(#paint0_linear_4777_969)"/>
<path d="M105.851 84.9238V63.5761H108.455L109.223 65.839H109.437C109.779 65.1558 110.348 64.5439 111.145 64.0031C111.97 63.4338 112.966 63.1492 114.133 63.1492H117.421C119.015 63.1492 120.339 63.6757 121.392 64.7289C122.445 65.782 122.971 67.1056 122.971 68.6996V84.9238H119.257V69.5108C119.257 67.6606 118.318 66.7356 116.439 66.7356H113.706C112.426 66.7356 111.415 67.0914 110.675 67.803C109.964 68.5146 109.608 69.525 109.608 70.8343V84.9238H105.851ZM133.602 84.9238C132.037 84.9238 130.713 84.3973 129.632 83.3441C128.578 82.2625 128.052 80.9389 128.052 79.3734V68.6996C128.052 67.1341 128.578 65.8247 129.632 64.7716C130.713 63.69 132.037 63.1492 133.602 63.1492H140.049C141.615 63.1492 142.924 63.69 143.977 64.7716C145.059 65.8247 145.6 67.1341 145.6 68.6996V76.2567H131.766V78.5622C131.766 79.473 132.008 80.1704 132.492 80.6543C132.976 81.1382 133.673 81.3801 134.584 81.3801H144.746V84.9238H133.602ZM131.766 72.7983H141.842V69.5108C141.842 67.6606 140.903 66.7356 139.025 66.7356H134.584C132.706 66.7356 131.766 67.6606 131.766 69.5108V72.7983ZM160.644 84.9238H156.802V58.6661H148.049V55.037H169.439V57.5561L168.287 58.6661H160.644V84.9238ZM174.388 85.3508C172.794 85.3508 171.471 84.8242 170.418 83.7711C169.365 82.7179 168.838 81.3943 168.838 79.8004V77.6656C168.838 76.0716 169.365 74.7481 170.418 73.6949C171.471 72.6418 172.794 72.1152 174.388 72.1152H181.903V69.9377C181.903 69.0554 181.661 68.3722 181.177 67.8884C180.693 67.4045 179.996 67.1625 179.085 67.1625H170.546V63.5761H180.11C181.703 63.5761 183.027 64.1027 184.08 65.1558C185.133 66.209 185.66 67.5326 185.66 69.1265V84.9238H183.056L182.287 82.7037H182.074C181.732 83.3868 181.148 83.9988 180.323 84.5396C179.498 85.0804 178.487 85.3508 177.292 85.3508H174.388ZM177.889 81.8071C179.142 81.8071 180.124 81.4513 180.835 80.7397C181.547 79.9996 181.903 79.0176 181.903 77.7937V75.4881H175.285C174.431 75.4881 173.762 75.7158 173.278 76.1713C172.823 76.5982 172.595 77.2387 172.595 78.0926V79.1173C172.595 79.9996 172.823 80.6685 173.278 81.1239C173.762 81.5794 174.431 81.8071 175.285 81.8071H177.889ZM191.201 92.182V63.5761H193.806L194.574 65.839H194.788C195.129 65.1558 195.713 64.5439 196.538 64.0031C197.364 63.4338 198.374 63.1492 199.57 63.1492H203.327C204.921 63.1492 206.244 63.6757 207.298 64.7289C208.351 65.782 208.877 67.1056 208.877 68.6996V79.3734C208.877 80.9674 208.351 82.2909 207.298 83.3441C206.244 84.3973 204.921 84.9238 203.327 84.9238H194.959V92.182H191.201ZM202.302 81.3801C203.213 81.3801 203.91 81.1382 204.394 80.6543C204.878 80.1704 205.12 79.473 205.12 78.5622V69.5108C205.12 67.6606 204.181 66.7356 202.302 66.7356H199.057C197.776 66.7356 196.766 67.0914 196.026 67.803C195.314 68.5146 194.959 69.525 194.959 70.8343V81.3801H202.302Z" fill="white"/>
<path opacity="0.84" d="M80.1951 16.8473C79.7677 17.2059 79.2282 17.431 78.6077 17.4509C60.8716 18.1764 46.9544 29.8543 43.1601 47.1949C42.839 48.6024 41.449 49.4957 40.0639 49.2012C38.6565 48.8801 37.7633 47.4901 38.0577 46.105C42.3616 26.3338 58.2021 13.0421 78.3936 12.2592C79.8355 12.1873 81.0492 13.3083 81.0944 14.7726C81.173 15.5715 80.8095 16.3318 80.1951 16.8473Z" fill="url(#paint1_linear_4777_969)"/>
<path opacity="0.84" d="M83.3544 30.8075C82.927 31.1661 82.3875 31.3912 81.767 31.4111C69.0753 31.9096 59.1116 40.2702 56.3901 52.7049C56.0689 54.1124 54.6789 55.0056 53.2939 54.7111C51.8864 54.39 50.9932 53 51.2876 51.6149C54.5145 36.7988 66.4015 26.8244 81.5529 26.2193C82.9948 26.1475 84.2085 27.2685 84.2537 28.7328C84.3056 29.5541 83.9421 30.3144 83.3544 30.8075Z" fill="url(#paint2_linear_4777_969)"/>
<path opacity="0.84" d="M84.586 46.4357C84.1586 46.7943 83.6191 47.0195 82.9986 47.0394C77.2621 47.2553 72.7477 51.0434 71.5389 56.6552C71.2178 58.0627 69.8278 58.9559 68.4427 58.6615C67.0352 58.3403 66.142 56.9504 66.4364 55.5653C68.1773 47.5496 74.5883 42.1701 82.7845 41.8476C84.2264 41.7757 85.4401 42.8968 85.4853 44.3611C85.5415 45.1333 85.2004 45.9202 84.586 46.4357Z" fill="url(#paint3_linear_4777_969)"/>
<defs>
<linearGradient id="paint0_linear_4777_969" x1="96.9999" y1="70" x2="80.9999" y2="70" gradientUnits="userSpaceOnUse">
<stop stop-color="#116DFF"/>
<stop offset="1" stop-color="#23C0B6"/>
</linearGradient>
<linearGradient id="paint1_linear_4777_969" x1="77.6913" y1="9.83839" x2="35.8151" y2="44.9767" gradientUnits="userSpaceOnUse">
<stop stop-color="#116DFF"/>
<stop offset="1" stop-color="#23C0B6"/>
</linearGradient>
<linearGradient id="paint2_linear_4777_969" x1="81.5987" y1="24.6901" x2="49.7931" y2="51.3782" gradientUnits="userSpaceOnUse">
<stop stop-color="#116DFF"/>
<stop offset="1" stop-color="#23C0B6"/>
</linearGradient>
<linearGradient id="paint3_linear_4777_969" x1="83.8558" y1="41.5405" x2="65.9674" y2="56.5506" gradientUnits="userSpaceOnUse">
<stop stop-color="#116DFF"/>
<stop offset="1" stop-color="#23C0B6"/>
</linearGradient>
</defs>
</svg>
